<svg width="20" height="20" viewBox="0 0 20 20" fill="none" xmlns="http://www.w3.org/2000/svg">
<path d="M9.99984 13.3334C11.8408 13.3334 13.3332 11.841 13.3332 10.0001C13.3332 8.15913 11.8408 6.66675 9.99984 6.66675C8.15889 6.66675 6.6665 8.15913 6.6665 10.0001C6.6665 11.841 8.15889 13.3334 9.99984 13.3334Z" stroke="#EF8629" stroke-width="1.5" stroke-linecap="round" stroke-linejoin="round"/>
<path d="M13.3332 6.66672V10.8334C13.3332 11.4964 13.5966 12.1323 14.0654 12.6012C14.5343 13.07 15.1701 13.3334 15.8332 13.3334C16.4962 13.3334 17.1321 13.07 17.6009 12.6012C18.0698 12.1323 18.3332 11.4964 18.3332 10.8334V10.0001C18.3331 8.11924 17.6967 6.29378 16.5276 4.8205C15.3584 3.34721 13.7253 2.31274 11.8937 1.8853C10.0621 1.45786 8.13979 1.66259 6.4393 2.46619C4.73881 3.2698 3.36018 4.62502 2.52756 6.31149C1.69494 7.99796 1.45732 9.9165 1.85332 11.7551C2.24932 13.5938 3.25566 15.2444 4.7087 16.4386C6.16175 17.6328 7.97604 18.3003 9.85657 18.3327C11.7371 18.365 13.5733 17.7603 15.0665 16.6167" stroke="#EF8629" stroke-width="1.5" stroke-linecap="round" stroke-linejoin="round"/>
</svg>
